<svg xmlns="http://www.w3.org/2000/svg" viewBox="0 0 64 64">
  <rect width="64" height="64" rx="14" fill="#111827"/>
  <path d="M15 17c0-2.2 1.8-4 4-4h12c2.2 0 4 1.8 4 4v32c0 1.1-.9 2-2 2H19c-2.2 0-4-1.8-4-4V17Z" fill="#f8fafc"/>
  <path d="M29 13h16c2.2 0 4 1.8 4 4v30c0 2.2-1.8 4-4 4H33c1.1 0 2-.9 2-2V17c0-2.2-1.8-4-4-4h-2Z" fill="#38bdf8"/>
  <path d="M22 23h6M22 30h6M39 23h5M39 30h5" stroke="#111827" stroke-width="2.4" stroke-linecap="round"/>
  <text x="32" y="44" text-anchor="middle" font-family="Inter, Arial, sans-serif" font-size="12" font-weight="800" fill="#111827">WI</text>
</svg>
